{"title":"Smashed.2012.BRRip.XviD.AC3.HORiZON-ArtSubs","uid":8195487,"size":1473445895,"categoryP":"video","categoryS":"movies","magnet":"?xt=urn:btih:d79beff89be34e7648a856a30480cef3fbf5d3a2&amp;dn=Smashed.2012.BRRip.XviD.AC3.HORiZON-ArtSubs&amp;tr=udp%3A%2F%2Ftracker.openbittorrent.com%3A80&amp;tr=udp%3A%2F%2Fopen.demonii.com%3A1337&amp;tr=udp%3A%2F%2Ftracker.coppersurfer.tk%3A6969&amp;tr=udp%3A%2F%2Fexodus.desync.com%3A6969","seeders":0,"leechers":1,"uploader":"lletaif","files":3,"time":1361905775,"description":"Title:\nSmashed\n\nCountry:\nUSA/2012\n\nLanguage:\nEnglish\n\nSubtitle:\nEnglish\n\nDirector:\nJames Ponsoldt\n\nWriters:\nSusan Burke, James Ponsoldt\n\nStars:\nMary Elizabeth Winstead, Aaron Paul, Octavia Spencer \n\nSynopsis:\nKate and Charlie Hannah have a relationship well lubricated with alcohol, but Kate finally finds her chemical appetites have gotten completely out of control. With the help of an ex-addict friend at work, Kate finds a support group that helps her begin to conquer her addictions. However, that recovery proves just part of a larger personal challenge to rebuild her life even as her marriage with her drunken husband deteriorates. \n\nTrivia:\nWon Special Jury Prize from Sundance Film Festival 2012\n\nImdb: &lt;a href=&quot;\nhttp://www.imdb.com/title/tt2063781&quot; rel=&quot;nofollow&quot; target=&quot;_NEW&quot;&gt;\nhttp://www.imdb.com/title/tt2063781&lt;/a&gt;\n\nTrailer: &lt;a href=&quot;\nhttp://www.cine.gr/film.asp?id=717132&quot; rel=&quot;nofollow&quot; target=&quot;_NEW&quot;&gt;\nhttp://www.cine.gr/film.asp?id=717132&lt;/a&gt;\n\n\nMedia Info:\n\nGeneral\nComplete name                            : Smashed.2012.BRRip.XviD.AC3.HORiZON-ArtSubs\nFormat                                   : AVI\nFormat/Info                              : Audio Video Interleave\nFile size                                : 1.36 GiB\nDuration                                 : 1h 21mn\nOverall bit rate                         : 2 409 Kbps\nWriting application                      : FairUse Wizard - http://fairusewizard.com\nWriting library                          : The best and REALLY easy backup tool\n\nVideo\nID                                       : 0\nFormat                                   : MPEG-4 Visual\nFormat profile                           : Advanced Simple@L5\nFormat settings, BVOP                    : 1\nFormat settings, QPel                    : No\nFormat settings, GMC                     : No warppoints\nFormat settings, Matrix                  : Default (MPEG)\nMuxing mode                              : Packed bitstream\nCodec ID                                 : XVID\nCodec ID/Hint                            : XviD\nDuration                                 : 1h 21mn\nBit rate                                 : 1 952 Kbps\nWidth                                    : 688 pixels\nHeight                                   : 368 pixels\nDisplay aspect ratio                     : 1.85:1\nFrame rate                               : 23.976 fps\nColor space                              : YUV\nChroma subsampling                       : 4:2:0\nBit depth                                : 8 bits\nScan type                                : Progressive\nCompression mode                         : Lossy\nBits/(Pixel*Frame)                       : 0.321\nStream size                              : 1.11 GiB (81%)\nWriting library                          : XviD 1.2.0.dev47 (UTC 2006-11-01)\n\nAudio\nID                                       : 1\nFormat                                   : AC-3\nFormat/Info                              : Audio Coding 3\nMode extension                           : CM (complete main)\nFormat settings, Endianness              : Big\nCodec ID                                 : 2000\nDuration                                 : 1h 21mn\nBit rate mode                            : Constant\nBit rate                                 : 448 Kbps\nChannel(s)                               : 6 channels\nChannel positions                        : Front: L C R, Side: L R, LFE\nSampling rate                            : 48.0 KHz\nBit depth                                : 16 bits\nCompression mode                         : Lossy\nStream size                              : 260 MiB (19%)\nAlignment                                : Split accross interleaves\nInterleave, duration                     : 42 ms (1.00 video frame)\nInterleave, preload duration             : 500 ms\n\n","torrent":{"xt":"urn:btih:d79beff89be34e7648a856a30480cef3fbf5d3a2","amp;dn":"Smashed.2012.BRRip.XviD.AC3.HORiZON-ArtSubs","amp;tr":["udp%3A%2F%2Ftracker.openbittorrent.com%3A80","udp%3A%2F%2Fopen.demonii.com%3A1337","udp%3A%2F%2Ftracker.coppersurfer.tk%3A6969","udp%3A%2F%2Fexodus.desync.com%3A6969"],"infoHash":"d79beff89be34e7648a856a30480cef3fbf5d3a2","infoHashBuffer":{"type":"Buffer","data":[215,155,239,248,155,227,78,118,72,168,86,163,4,128,206,243,251,245,211,162]},"announce":[],"urlList":[]}}